<svg xmlns="http://www.w3.org/2000/svg" version="1.1" xmlns:xlink="http://www.w3.org/1999/xlink" xmlns:svgjs="http://svgjs.dev/svgjs" width="1000" height="623" viewBox="0 0 1000 623"><g transform="matrix(1,0,0,1,-0.6060606060606233,0.2522267206477409)"><svg viewBox="0 0 396 247" data-background-color="#ffffff" preserveAspectRatio="xMidYMid meet" height="623" width="1000" xmlns="http://www.w3.org/2000/svg" xmlns:xlink="http://www.w3.org/1999/xlink"><g id="tight-bounds" transform="matrix(1,0,0,1,0.2400000000000091,-0.09999999999999432)"><svg viewBox="0 0 395.52 247.2" height="247.2" width="395.52"><g><svg viewBox="0 0 395.52 247.2" height="247.2" width="395.52"><g transform="matrix(1,0,0,1,27.05430960000001,61.776621306600546)"><svg viewBox="0 0 341.41138079999996 123.6467573867989" height="123.6467573867989" width="341.41138079999996"><g><svg viewBox="0 0 341.41138079999996 123.6467573867989" height="123.6467573867989" width="341.41138079999996"><g><svg viewBox="0 0 341.41138079999996 123.6467573867989" height="123.6467573867989" width="341.41138079999996"><g><path d="M0 123.647v-123.647h341.411v123.647z" fill="#36599e" stroke="transparent" stroke-width="0" rx="0%" data-fill-palette-color="tertiary"></path><path d="M4.509 119.138v-114.629h332.393v114.629z" fill="#ffffff" stroke="transparent" stroke-width="0" rx="0%" data-fill-palette-color="quaternary"></path><path d="M13.527 110.12v-96.593h314.357v96.593z" fill="#36599e" stroke="transparent" stroke-width="0" data-fill-palette-color="tertiary"></path></g><g transform="matrix(1,0,0,1,27.054309599999996,27.054309599999996)"><svg viewBox="0 0 287.30276159999994 69.5381381867989" height="69.5381381867989" width="287.30276159999994"><g><svg viewBox="0 0 287.30276159999994 37.40422434289178" height="37.40422434289178" width="287.30276159999994"><g transform="matrix(1,0,0,1,0,0)"><svg width="287.30276159999994" viewBox="0.550000011920929 -31.700000762939453 329.8700256347656 42.95000076293945" height="37.40422434289178" data-palette-color="#ffffff"><path d="M0.55-29.15Q0.55-31.3 3.7-31.3L3.7-31.3Q5.05-31.3 8.85-31.2L8.85-31.2Q13.05-31 15.2-31L15.2-31Q16.95-31 19.45-31.2L19.45-31.2Q21.15-31.3 21.6-31.3L21.6-31.3Q24.35-31.2 26.25-30.3L26.25-30.3Q26.8-30.05 27.15-29.7 27.5-29.35 27.5-28.55L27.5-28.55Q27.5-27.45 26.8-26.68 26.1-25.9 25.1-25.9L25.1-25.9Q24-25.9 21.9-26.2L21.9-26.2Q20.05-26.55 18.65-26.55L18.65-26.55Q17.3-26.55 16.6-26.5L16.6-26.5Q16.45-24.85 16.45-18.6L16.45-18.6Q16.45-11.15 16.9-3.5L16.9-3.5 17-2.05Q17 0 14.65 0L14.65 0Q12.8 0 12.15-0.88 11.5-1.75 11.5-3.55L11.5-3.55Q11.5-7.1 11.3-12.4L11.3-12.4Q11.1-16.8 11.1-18.65L11.1-18.65Q11.1-19.9 11.4-26.3L11.4-26.3 5.55-26.25Q2.75-26.25 1.65-26.78 0.55-27.3 0.55-29.15L0.55-29.15ZM38.1-2Q38.1-1.15 37.45-0.5 36.8 0.15 35.85 0.15L35.85 0.15Q34.35 0.15 33.65-0.43 32.95-1 32.95-2.55L32.95-2.55Q32.95-4.4 32.85-7.4L32.85-7.4Q32.75-9.9 32.75-11.6L32.75-11.6Q32.75-12.4 32.85-13.7L32.85-13.7Q32.95-14.9 32.95-15.5L32.95-15.5Q32.8-16.45 32.2-17.07 31.6-17.7 30.65-17.7L30.65-17.7Q30.2-17.7 29.9-18.13 29.6-18.55 29.6-19L29.6-19Q29.6-20.15 30.52-20.75 31.45-21.35 32.75-21.35L32.75-21.35Q35.45-21.35 36.5-18.15L36.5-18.15Q37.8-19.65 39.47-20.58 41.15-21.5 42.7-21.5L42.7-21.5Q44.55-21.5 46.07-20.5 47.6-19.5 47.6-17.8L47.6-17.8Q47.6-16.85 46.77-15.85 45.95-14.85 45.1-14.85L45.1-14.85Q44.65-14.85 44.32-15.08 44-15.3 43.55-15.75L43.55-15.75Q43.05-16.25 42.7-16.48 42.35-16.7 41.9-16.7L41.9-16.7Q41.1-16.7 40.4-16.45 39.7-16.2 39.45-15.85L39.45-15.85Q38.65-14.6 38.27-13.6 37.9-12.6 37.9-11.45L37.9-11.45Q37.9-10.6 37.85-10.1L37.85-10.1 37.8-7.25Q37.8-6.6 37.85-5.8 37.9-5 37.95-4.6L37.95-4.6Q38.1-3.25 38.1-2L38.1-2ZM50.15-10.6Q50.15-12.5 50.85-14.43 51.55-16.35 52.7-17.95L52.7-17.95Q53.85-19.55 56.35-20.58 58.85-21.6 60.8-21.6L60.8-21.6Q62.8-21.6 64.87-21.05 66.95-20.5 67.75-19.35L67.75-19.35Q69.59-16.75 69.59-14.25L69.59-14.25Q69.59-12.9 69.02-11.95 68.45-11 67.4-9.9L67.4-9.9Q66.55-9 64.72-8.7 62.9-8.4 61.1-8.4L61.1-8.4Q59.95-8.4 58.3-8.63 56.65-8.85 55.1-9.2L55.1-9.2Q55.2-8.2 55.6-7.25 56-6.3 56.55-5.8L56.55-5.8Q57.55-4.85 58.62-4.6 59.7-4.35 61.4-4.35L61.4-4.35Q63.2-4.35 64.75-4.95L64.75-4.95Q66-5.4 66.8-5.4L66.8-5.4Q67.75-5.4 68.25-4.83 68.75-4.25 68.75-3.35L68.75-3.35Q68.75-2.1 67.3-1.3 65.84-0.5 63.97-0.13 62.1 0.25 60.95 0.25L60.95 0.25Q58.6 0.25 56.4-0.6 54.2-1.45 52.75-3L52.75-3Q51.55-4.4 50.85-6.38 50.15-8.35 50.15-10.6L50.15-10.6ZM61.05-17.35Q59.95-17.35 58.85-16.93 57.75-16.5 57.05-15.75L57.05-15.75Q56.15-14.8 55.82-14.23 55.5-13.65 55.4-12.65L55.4-12.65Q56.65-12.25 60.6-12.25L60.6-12.25Q62.75-12.25 63.92-12.9 65.09-13.55 65.09-14.6L65.09-14.6Q65.09-15.65 63.8-16.5 62.5-17.35 61.05-17.35L61.05-17.35ZM97.14-2.4Q97.14-1.3 95.97-0.55 94.79 0.2 93.79 0.2L93.79 0.2Q91.89 0.2 90.77-0.28 89.64-0.75 88.69-2.05L88.69-2.05Q87.39-0.9 85.14-0.33 82.89 0.25 80.99 0.25L80.99 0.25Q77.89 0.25 75.89-1.43 73.89-3.1 73.89-6.35L73.89-6.35Q73.89-7.75 74.64-8.93 75.39-10.1 76.69-11L76.69-11Q78.14-11.95 79.99-12.48 81.84-13 83.84-13L83.84-13Q84.89-13 86.34-12.6 87.79-12.2 88.59-11.75L88.59-11.75 88.59-12.55Q88.59-15.25 87.29-16.28 85.99-17.3 83.09-17.3L83.09-17.3Q82.24-17.3 81.42-16.95 80.59-16.6 79.54-16L79.54-16Q78.14-15.25 76.89-15.25L76.89-15.25Q76.44-15.25 76.04-15.88 75.64-16.5 75.64-17L75.64-17Q75.64-18.45 77.02-19.5 78.39-20.55 80.29-21.08 82.19-21.6 83.69-21.6L83.69-21.6Q85.19-21.6 87.14-21.03 89.09-20.45 90.34-19.45L90.34-19.45Q91.84-18.15 92.67-16.43 93.49-14.7 93.49-12.65L93.49-12.65Q93.49-12 93.39-10.7L93.39-10.7Q93.29-9.3 93.29-8.3L93.29-8.3Q93.29-7.85 93.19-6.95L93.19-6.95Q93.09-5.85 93.09-5.2L93.09-5.2Q93.09-4.6 93.54-4.17 93.99-3.75 94.59-3.75L94.59-3.75 95.99-3.8Q96.54-3.8 96.84-3.4 97.14-3 97.14-2.4L97.14-2.4ZM81.04-3.7Q83.19-3.7 84.64-4.15 86.09-4.6 88.14-5.8L88.14-5.8Q88.34-6.65 88.39-8.05L88.39-8.05Q85.64-9.35 83.84-9.35L83.84-9.35Q81.79-9.35 80.19-8.6 78.59-7.85 78.59-5.95L78.59-5.95Q78.59-5 79.39-4.35 80.19-3.7 81.04-3.7L81.04-3.7ZM114.44-11.25Q114.84-11 116.02-10.33 117.19-9.65 117.59-8.75 117.99-7.85 117.99-6.25L117.99-6.25Q117.99-4.45 116.94-3.08 115.89-1.7 114.24-0.95L114.24-0.95Q113.04-0.4 111.32-0.1 109.59 0.2 108.59 0.2L108.59 0.2Q107.59 0.2 106.02-0.1 104.44-0.4 103.84-0.65L103.84-0.65Q102.29-1.55 101.17-2.85 100.04-4.15 100.04-5.5L100.04-5.5Q100.04-6.5 100.69-7.08 101.34-7.65 102.39-7.65L102.39-7.65Q102.89-7.65 103.44-7.28 103.99-6.9 104.19-6.5L104.19-6.5Q104.74-5.2 106.04-4.55 107.34-3.9 108.69-3.9L108.69-3.9Q110.44-3.9 111.94-4.48 113.44-5.05 113.44-6.05L113.44-6.05Q113.44-6.5 113.22-6.78 112.99-7.05 112.59-7.35L112.59-7.35Q111.89-7.85 110.49-8.18 109.09-8.5 108.69-8.6L108.69-8.6Q106.64-9.05 104.69-9.95L104.69-9.95Q102.74-10.9 101.59-12.2 100.44-13.5 100.44-15.55L100.44-15.55Q100.44-16.9 101.44-18.38 102.44-19.85 103.69-20.45L103.69-20.45Q104.59-20.8 106.72-21.2 108.84-21.6 109.59-21.6L109.59-21.6Q110.74-21.6 112.09-21.38 113.44-21.15 114.14-20.65L114.14-20.65Q115.49-19.85 116.34-18.98 117.19-18.1 117.19-17L117.19-17Q117.19-16.45 116.94-15.83 116.69-15.2 116.34-15.05L116.34-15.05Q115.59-14.7 114.59-14.7L114.59-14.7Q114.14-14.7 113.87-14.95 113.59-15.2 113.14-15.75L113.14-15.75Q112.59-16.6 112.09-16.75L112.09-16.75Q111.49-16.9 110.34-17.13 109.19-17.35 108.79-17.35L108.79-17.35Q107.64-17.35 106.42-16.7 105.19-16.05 105.19-15.2L105.19-15.2Q105.19-14.75 105.57-14.5 105.94-14.25 106.37-14.05 106.79-13.85 106.94-13.8L106.94-13.8Q107.99-13.3 109.27-12.95 110.54-12.6 110.84-12.5L110.84-12.5Q113.54-11.85 114.44-11.25L114.44-11.25ZM121.74-16.85Q121.34-16.85 121.01-17.18 120.69-17.5 120.69-17.95L120.69-17.95Q120.69-19.1 121.69-20.1L121.69-20.1Q121.99-20.25 122.89-20.6 123.79-20.95 124.49-20.95L124.49-20.95Q126.39-20.95 127.59-19.93 128.79-18.9 128.79-17L128.79-17Q128.79-16.45 128.59-14.65L128.59-14.65Q128.39-12.55 128.39-11.4L128.39-11.4Q128.39-7.9 129.34-5.75L129.34-5.75Q129.69-5.05 130.44-4.65 131.19-4.25 131.79-4.25L131.79-4.25Q133.24-4.25 134.14-4.75 135.04-5.25 136.09-6.35L136.09-6.35Q137.14-7.45 137.46-8.85 137.79-10.25 137.94-12.7L137.94-12.7Q138.04-14.3 138.14-15.05L138.14-15.05Q138.39-17.45 138.39-19.15L138.39-19.15Q138.39-20.25 138.99-20.98 139.59-21.7 140.64-21.7L140.64-21.7Q141.24-21.7 142.01-21.33 142.79-20.95 143.04-20.45L143.04-20.45Q143.34-19.95 143.34-18.8L143.34-18.8Q143.34-18.2 143.19-17.65L143.19-17.65Q142.84-16.4 142.84-14.65L142.84-14.65 142.89-12.05Q142.89-8.5 143.39-6.8L143.39-6.8Q143.64-6 144.09-5.18 144.54-4.35 144.94-3.8L144.94-3.8Q145.94-2.7 146.24-2.27 146.54-1.85 146.54-1.45L146.54-1.45Q146.54-0.85 145.96-0.33 145.39 0.2 144.74 0.2L144.74 0.2Q142.89 0.2 141.54-1.05 140.19-2.3 139.54-4.3L139.54-4.3Q137.84-2.35 136.39-1.15L136.39-1.15Q135.39-0.45 133.94-0.13 132.49 0.2 131.04 0.2L131.04 0.2Q129.09 0.2 127.09-1.4 125.09-3 124.39-5.1L124.39-5.1Q124.34-5.2 124.11-5.9 123.89-6.6 123.89-8L123.89-8Q123.89-9.85 124.09-12.65L124.09-12.65Q124.24-14.45 124.24-15.95L124.24-15.95Q124.24-16.4 123.91-16.7 123.59-17 123.19-17L123.19-17Q122.89-17 122.51-16.93 122.14-16.85 121.74-16.85L121.74-16.85ZM157.74-2Q157.74-1.15 157.09-0.5 156.44 0.15 155.49 0.15L155.49 0.15Q153.99 0.15 153.28-0.43 152.59-1 152.59-2.55L152.59-2.55Q152.59-4.4 152.49-7.4L152.49-7.4Q152.38-9.9 152.38-11.6L152.38-11.6Q152.38-12.4 152.49-13.7L152.49-13.7Q152.59-14.9 152.59-15.5L152.59-15.5Q152.44-16.45 151.84-17.07 151.24-17.7 150.28-17.7L150.28-17.7Q149.84-17.7 149.53-18.13 149.24-18.55 149.24-19L149.24-19Q149.24-20.15 150.16-20.75 151.09-21.35 152.38-21.35L152.38-21.35Q155.09-21.35 156.13-18.15L156.13-18.15Q157.44-19.65 159.11-20.58 160.78-21.5 162.34-21.5L162.34-21.5Q164.19-21.5 165.71-20.5 167.24-19.5 167.24-17.8L167.24-17.8Q167.24-16.85 166.41-15.85 165.59-14.85 164.74-14.85L164.74-14.85Q164.28-14.85 163.96-15.08 163.63-15.3 163.19-15.75L163.19-15.75Q162.69-16.25 162.34-16.48 161.99-16.7 161.53-16.7L161.53-16.7Q160.74-16.7 160.03-16.45 159.34-16.2 159.09-15.85L159.09-15.85Q158.28-14.6 157.91-13.6 157.53-12.6 157.53-11.45L157.53-11.45Q157.53-10.6 157.49-10.1L157.49-10.1 157.44-7.25Q157.44-6.6 157.49-5.8 157.53-5 157.59-4.6L157.59-4.6Q157.74-3.25 157.74-2L157.74-2ZM169.78-10.6Q169.78-12.5 170.48-14.43 171.18-16.35 172.33-17.95L172.33-17.95Q173.48-19.55 175.98-20.58 178.48-21.6 180.43-21.6L180.43-21.6Q182.43-21.6 184.51-21.05 186.58-20.5 187.38-19.35L187.38-19.35Q189.23-16.75 189.23-14.25L189.23-14.25Q189.23-12.9 188.66-11.95 188.08-11 187.03-9.9L187.03-9.9Q186.18-9 184.36-8.7 182.53-8.4 180.73-8.4L180.73-8.4Q179.58-8.4 177.93-8.63 176.28-8.85 174.73-9.2L174.73-9.2Q174.83-8.2 175.23-7.25 175.63-6.3 176.18-5.8L176.18-5.8Q177.18-4.85 178.26-4.6 179.33-4.35 181.03-4.35L181.03-4.35Q182.83-4.35 184.38-4.95L184.38-4.95Q185.63-5.4 186.43-5.4L186.43-5.4Q187.38-5.4 187.88-4.83 188.38-4.25 188.38-3.35L188.38-3.35Q188.38-2.1 186.93-1.3 185.48-0.5 183.61-0.13 181.73 0.25 180.58 0.25L180.58 0.25Q178.23 0.25 176.03-0.6 173.83-1.45 172.38-3L172.38-3Q171.18-4.4 170.48-6.38 169.78-8.35 169.78-10.6L169.78-10.6ZM180.68-17.35Q179.58-17.35 178.48-16.93 177.38-16.5 176.68-15.75L176.68-15.75Q175.78-14.8 175.46-14.23 175.13-13.65 175.03-12.65L175.03-12.65Q176.28-12.25 180.23-12.25L180.23-12.25Q182.38-12.25 183.56-12.9 184.73-13.55 184.73-14.6L184.73-14.6Q184.73-15.65 183.43-16.5 182.13-17.35 180.68-17.35L180.68-17.35ZM228.68-9.05Q228.68-6.7 227.6-5.03 226.53-3.35 224.08-1.95L224.08-1.95Q222.43-0.95 220.23-0.45 218.03 0.05 215.78 0.05L215.78 0.05Q213.48 0.05 210.08-1.45L210.08-1.45Q207.63-2.65 206.2-4.3 204.78-5.95 204.78-7.9L204.78-7.9Q204.78-9.25 205.38-9.88 205.98-10.5 207.33-10.5L207.33-10.5Q208.03-10.5 208.78-9.93 209.53-9.35 209.68-8.8L209.68-8.8Q210.38-6.75 212.13-5.68 213.88-4.6 216.48-4.6L216.48-4.6Q219.48-4.6 221.5-5.7 223.53-6.8 223.53-8.65L223.53-8.65Q223.53-10.45 221.33-11.85 219.13-13.25 216.83-13.8L216.83-13.8Q213.53-14.7 210.98-15.95L210.98-15.95Q208.33-17.25 207.03-19.15 205.73-21.05 205.73-23.15L205.73-23.15Q205.73-25.1 207.08-27.13 208.43-29.15 210.28-30.05L210.28-30.05Q211.28-30.55 213.7-31.13 216.13-31.7 217.23-31.7L217.23-31.7Q218.68-31.7 220.43-31.35 222.18-31 223.28-30.35L223.28-30.35Q225.48-29.1 226.53-28.1 227.58-27.1 227.58-25.6L227.58-25.6Q227.58-24.7 226.9-24 226.23-23.3 224.58-23.3L224.58-23.3Q224.18-23.3 223.78-23.65 223.38-24 222.78-24.7L222.78-24.7Q221.98-25.75 221.23-26.1L221.23-26.1Q220.48-26.35 219.05-26.65 217.63-26.95 216.53-26.95L216.53-26.95Q215.33-26.95 214.03-26.45 212.73-25.95 211.85-25.03 210.98-24.1 210.98-22.9L210.98-22.9Q210.98-21.9 211.9-21.18 212.83-20.45 214.13-20L214.13-20Q215.63-19.4 217.38-18.95L217.38-18.95Q219.68-18.25 221.15-17.68 222.63-17.1 224.03-16.25L224.03-16.25Q226.48-14.8 227.58-13.28 228.68-11.75 228.68-9.05L228.68-9.05ZM253.18-16.05Q253.57-15.35 253.82-14.03 254.07-12.7 254.07-11.65L254.07-11.65Q254.07-9.7 253.22-6.1L253.22-6.1Q249.78 0.2 243.03 0.2L243.03 0.2Q240.53 0.2 237.92-1.45 235.32-3.1 234.32-5.25L234.32-5.25Q232.97-9.55 232.97-10.7L232.97-10.7Q232.97-12.7 233.85-14.95 234.72-17.2 236.07-18.85L236.07-18.85Q236.92-20 239.13-20.83 241.32-21.65 243.13-21.65L243.13-21.65Q246.63-21.65 249.07-20.33 251.53-19 253.18-16.05L253.18-16.05ZM248.82-8Q249.07-8.65 249.07-11.35L249.07-11.35Q249.07-12.8 248.55-14.2 248.03-15.6 247.03-16.6L247.03-16.6Q246.92-16.7 246.47-16.93 246.03-17.15 245.25-17.38 244.47-17.6 243.47-17.6L243.47-17.6Q240.67-17.6 239.38-15.35 238.07-13.1 238.07-10.25L238.07-10.25Q238.07-9.75 238.35-8.35 238.63-6.95 238.82-6.6L238.82-6.6Q238.97-6.25 239.6-5.63 240.22-5 241.15-4.53 242.07-4.05 243.07-4.05L243.07-4.05Q245.32-4.05 246.67-5.13 248.03-6.2 248.82-8L248.82-8ZM281.77-3.85Q282.02-3.75 282.57-3.6 283.12-3.45 283.37-3.3 283.62-3.15 283.62-2.85L283.62-2.85Q283.67-1.65 282.75-0.88 281.82-0.1 280.57-0.1L280.57-0.1Q278.62-0.1 277.52-1.15 276.42-2.2 275.92-4.35L275.92-4.35Q275.72-5.2 275.72-6.7L275.72-6.7Q275.72-7.55 275.82-9.45L275.82-9.45Q275.92-11.45 275.92-12.65L275.92-12.65Q275.92-14.4 274.95-15.73 273.97-17.05 272.22-17.05L272.22-17.05Q271.17-17.05 270.02-16.43 268.87-15.8 268.42-14.9L268.42-14.9Q267.67-13.45 267.37-11.75L267.37-11.75Q266.82-8.75 266.82-5.5L266.82-5.5Q266.82-3.95 266.87-3.1L266.87-3.1Q266.87-2.9 266.9-2.33 266.92-1.75 266.8-1.28 266.67-0.8 266.37-0.4L266.37-0.4Q266.12-0.15 265.6 0.03 265.07 0.2 264.62 0.2L264.62 0.2Q263.92 0.2 262.87-0.4 261.82-1 261.67-1.75L261.67-1.75 261.62-2.6Q261.62-3.05 261.72-3.65L261.72-3.65Q262.32-7.15 262.32-9.75L262.32-9.75Q262.32-10.9 262.27-11.55L262.27-11.55 262.22-13.9Q262.22-15.1 261.62-16.23 261.02-17.35 260.22-17.35L260.22-17.35Q259.97-17.35 259.52-17.18 259.07-17 258.77-17L258.77-17Q258.27-17 257.7-17.5 257.12-18 257.12-18.55L257.12-18.55Q257.12-19.6 257.82-20.25L257.82-20.25Q258.57-20.85 259.3-21.2 260.02-21.55 260.97-21.55L260.97-21.55Q261.77-21.55 262.27-21.4 262.77-21.25 263.62-20.75L263.62-20.75Q264.07-20.5 264.67-19.65 265.27-18.8 265.67-17.25L265.67-17.25Q266.97-19.65 268.9-20.63 270.82-21.6 273.82-21.6L273.82-21.6Q274.97-21.6 276.3-20.85 277.62-20.1 278.57-19.1L278.57-19.1Q279.47-18 280.07-16.38 280.67-14.75 280.67-13.45L280.67-13.45Q280.67-12.7 280.57-11L280.57-11Q280.42-9.65 280.42-8.15L280.42-8.15Q280.42-4.65 281.77-3.85L281.77-3.85ZM305.27-0.1Q306.62 0.85 307.09 2 307.57 3.15 307.57 5.2L307.57 5.2Q307.57 6.2 307 7.2 306.42 8.2 305.82 8.65L305.82 8.65Q301.07 11.25 296.32 11.25L296.32 11.25Q293.97 11.25 292.27 10.65 290.57 10.05 289.07 9.05L289.07 9.05Q288.07 8.3 287.44 6.98 286.82 5.65 286.82 4.35L286.82 4.35Q286.82 2.55 287.94 1.2 289.07-0.15 290.97-0.75L290.97-0.75Q290.62-1.5 290.62-2.5L290.62-2.5Q290.62-3.45 292.02-5.35L292.02-5.35Q289.62-6.15 288.25-8.2 286.87-10.25 286.87-13L286.87-13Q286.87-14.7 287.67-16.03 288.47-17.35 290.07-19.1L290.07-19.1Q291.17-20.3 292.87-20.85 294.57-21.4 297.12-21.4L297.12-21.4Q298.92-21.4 301.57-20.6L301.57-20.6Q304.72-22.8 307.12-22.8L307.12-22.8Q307.72-22.8 308.5-22.5 309.27-22.2 309.67-21.9L309.67-21.9Q309.97-21.35 309.97-20.05L309.97-20.05Q309.97-19.55 309.55-19.07 309.12-18.6 308.47-18.6L308.47-18.6 307.27-18.65Q306.37-18.75 305.87-18.75L305.87-18.75Q305.32-18.75 304.22-18.65L304.22-18.65Q305.27-17.4 305.84-16 306.42-14.6 306.42-12.35L306.42-12.35Q306.42-10.65 305.17-8.8 303.92-6.95 302.22-5.9L302.22-5.9Q299.62-4.5 296.17-4.45L296.17-4.45Q295.77-4.05 295.5-3.73 295.22-3.4 295.22-3.2L295.22-3.2Q295.22-2.65 296.17-2.35 297.12-2.05 299.07-1.9L299.07-1.9Q300.57-1.8 302.39-1.28 304.22-0.75 305.27-0.1L305.27-0.1ZM296.47-8.55Q298.77-8.55 300.17-9.8 301.57-11.05 301.57-13.35L301.57-13.35Q301.57-15.1 300.32-16.2 299.07-17.3 297.12-17.3L297.12-17.3Q295.87-17.3 294.44-16.88 293.02-16.45 292.42-15.55L292.42-15.55Q292.12-15.15 291.82-14.03 291.52-12.9 291.52-12.3L291.52-12.3Q291.52-11.45 292.25-10.58 292.97-9.7 294.14-9.13 295.32-8.55 296.47-8.55L296.47-8.55ZM299.62 2.3Q296.87 2.05 295.75 1.83 294.62 1.6 293.92 1.3L293.92 1.3Q291.37 2.65 291.37 4.25L291.37 4.25Q291.37 5.75 292.92 6.53 294.47 7.3 296.47 7.3L296.47 7.3Q297.37 7.3 298.92 7.1 300.47 6.9 301.52 6.4L301.52 6.4Q302.22 6.05 302.57 5.73 302.92 5.4 302.92 4.55L302.92 4.55Q302.92 3.5 301.82 2.95 300.72 2.4 299.62 2.3L299.62 2.3ZM326.87-11.25Q327.27-11 328.44-10.33 329.62-9.65 330.02-8.75 330.42-7.85 330.42-6.25L330.42-6.25Q330.42-4.45 329.37-3.08 328.32-1.7 326.67-0.95L326.67-0.95Q325.47-0.4 323.74-0.1 322.02 0.2 321.02 0.2L321.02 0.2Q320.02 0.2 318.44-0.1 316.87-0.4 316.27-0.65L316.27-0.65Q314.72-1.55 313.59-2.85 312.47-4.15 312.47-5.5L312.47-5.5Q312.47-6.5 313.12-7.08 313.77-7.65 314.82-7.65L314.82-7.65Q315.32-7.65 315.87-7.28 316.42-6.9 316.62-6.5L316.62-6.5Q317.17-5.2 318.47-4.55 319.77-3.9 321.12-3.9L321.12-3.9Q322.87-3.9 324.37-4.48 325.87-5.05 325.87-6.05L325.87-6.05Q325.87-6.5 325.64-6.78 325.42-7.05 325.02-7.35L325.02-7.35Q324.32-7.85 322.92-8.18 321.52-8.5 321.12-8.6L321.12-8.6Q319.07-9.05 317.12-9.95L317.12-9.95Q315.17-10.9 314.02-12.2 312.87-13.5 312.87-15.55L312.87-15.55Q312.87-16.9 313.87-18.38 314.87-19.85 316.12-20.45L316.12-20.45Q317.02-20.8 319.14-21.2 321.27-21.6 322.02-21.6L322.02-21.6Q323.17-21.6 324.52-21.38 325.87-21.15 326.57-20.65L326.57-20.65Q327.92-19.85 328.77-18.98 329.62-18.1 329.62-17L329.62-17Q329.62-16.45 329.37-15.83 329.12-15.2 328.77-15.05L328.77-15.05Q328.02-14.7 327.02-14.7L327.02-14.7Q326.57-14.7 326.29-14.95 326.02-15.2 325.57-15.75L325.57-15.75Q325.02-16.6 324.52-16.75L324.52-16.75Q323.92-16.9 322.77-17.13 321.62-17.35 321.22-17.35L321.22-17.35Q320.07-17.35 318.84-16.7 317.62-16.05 317.62-15.2L317.62-15.2Q317.62-14.75 317.99-14.5 318.37-14.25 318.79-14.05 319.22-13.85 319.37-13.8L319.37-13.8Q320.42-13.3 321.69-12.95 322.97-12.6 323.27-12.5L323.27-12.5Q325.97-11.85 326.87-11.25L326.87-11.25Z" opacity="1" transform="matrix(1,0,0,1,0,0)" fill="#ffffff" class="undefined-text-0" data-fill-palette-color="quaternary" id="text-0"></path></svg></g></svg></g><g transform="matrix(1,0,0,1,0,46.42232754289178)"><svg viewBox="0 0 287.30276159999994 23.11581064390712" height="23.11581064390712" width="287.30276159999994"><g transform="matrix(1,0,0,1,0,0)"><svg width="287.30276159999994" viewBox="3.6500000953674316 -34 541.2799682617188 43.54999923706055" height="23.11581064390712" data-palette-color="#ffffff"><path d="M23.1-8.7L23.1-8.7Q23.1-4.3 20.15-1.98 17.2 0.35 12.6 0.35L12.6 0.35Q7.4 0.35 3.75-1.85L3.75-1.85 3.75-5.3Q5.25-4.15 7.63-3.4 10-2.65 12.45-2.65L12.45-2.65Q16-2.65 17.98-4.2 19.95-5.75 19.95-8.65L19.95-8.65Q19.95-10.85 18.45-12.23 16.95-13.6 14.1-14.85L14.1-14.85Q13.7-15.05 12.35-15.63 11-16.2 10.45-16.45 9.9-16.7 8.75-17.3 7.6-17.9 7.08-18.35 6.55-18.8 5.75-19.55 4.95-20.3 4.6-21.05 4.25-21.8 3.95-22.83 3.65-23.85 3.65-25L3.65-25Q3.65-29.25 6.7-31.63 9.75-34 14.15-34L14.15-34Q18.35-34 21.15-32.5L21.15-32.5 21.15-29.05Q19.95-29.85 18-30.4 16.05-30.95 14.2-30.95L14.2-30.95Q10.85-30.95 8.85-29.38 6.85-27.8 6.85-25.2L6.85-25.2Q6.85-23.85 7.38-22.8 7.9-21.75 9.15-20.88 10.4-20 11.33-19.53 12.25-19.05 14.15-18.25L14.15-18.25Q15.9-17.5 16.8-17.07 17.7-16.65 19.1-15.75 20.5-14.85 21.23-13.98 21.95-13.1 22.53-11.73 23.1-10.35 23.1-8.7ZM156.79-12.55L156.79-12.55Q156.79-6.9 153.62-3.23 150.44 0.45 144.89 0.45L144.89 0.45Q139.54 0.45 136.39-3.25 133.24-6.95 133.24-12.55L133.24-12.55Q133.24-18.1 136.49-21.9 139.74-25.7 144.89-25.7L144.89-25.7Q150.54-25.7 153.67-21.98 156.79-18.25 156.79-12.55ZM136.44-12.55L136.44-12.55Q136.44-8.4 138.77-5.43 141.09-2.45 144.89-2.45L144.89-2.45Q149.04-2.45 151.32-5.38 153.59-8.3 153.59-12.55L153.59-12.55Q153.59-16.95 151.44-19.88 149.29-22.8 144.89-22.8L144.89-22.8Q140.94-22.8 138.69-19.8 136.44-16.8 136.44-12.55ZM286.64-17.7L286.64 0 283.59 0 283.59-16.75Q283.59-19.7 282.09-21.25 280.59-22.8 278.14-22.8L278.14-22.8Q275.04-22.8 272.79-20.43 270.54-18.05 270.54-14L270.54-14 270.54 0 267.49 0 267.49-25.35 270.54-25.35 270.54-21Q272.89-25.75 278.59-25.75L278.59-25.75Q282.24-25.75 284.44-23.5 286.64-21.25 286.64-17.7L286.64-17.7ZM418.23-25.35L418.23-1.95Q418.23 3.8 415.13 6.68 412.03 9.55 407.13 9.55L407.13 9.55Q402.78 9.55 399.73 8.1L399.73 8.1 399.73 5.1Q402.83 6.65 406.88 6.65L406.88 6.65Q410.68 6.65 412.93 4.58 415.18 2.5 415.18-1.95L415.18-1.95 415.18-5.25Q412.63-0.6 407.58-0.6L407.58-0.6Q403.18-0.6 400.11-3.85 397.03-7.1 397.03-12.65L397.03-12.65Q397.03-18.35 399.86-22.05 402.68-25.75 407.28-25.75L407.28-25.75Q412.73-25.75 415.18-20.9L415.18-20.9 415.18-25.35 418.23-25.35ZM400.23-12.8L400.23-12.8Q400.23-8.25 402.53-5.88 404.83-3.5 407.63-3.5L407.63-3.5Q410.48-3.5 412.83-5.73 415.18-7.95 415.18-12.55L415.18-12.55Q415.18-17.8 412.93-20.33 410.68-22.85 407.88-22.85L407.88-22.85Q404.33-22.85 402.28-20.05 400.23-17.25 400.23-12.8ZM544.93-6.5L544.93-6.5Q544.93-3.35 542.75-1.53 540.58 0.3 536.78 0.3L536.78 0.3Q532.18 0.3 529.38-1.2L529.38-1.2 529.38-4.35Q532.73-2.45 536.58-2.45L536.58-2.45Q539.13-2.45 540.45-3.5 541.78-4.55 541.78-6.25L541.78-6.25Q541.78-8.25 540.4-9.35 539.03-10.45 535.88-11.7L535.88-11.7Q532.83-12.9 531.03-14.5 529.23-16.1 529.23-18.9L529.23-18.9Q529.23-21.95 531.48-23.78 533.73-25.6 537.13-25.6L537.13-25.6Q541.23-25.6 543.43-24.45L543.43-24.45 543.43-21.4Q541.08-22.75 537.08-22.75L537.08-22.75Q534.88-22.75 533.6-21.73 532.33-20.7 532.33-19.05L532.33-19.05Q532.33-18.05 532.7-17.3 533.08-16.55 534-15.93 534.93-15.3 535.58-15 536.23-14.7 537.68-14.1L537.68-14.1Q541.18-12.7 543.05-11.03 544.93-9.35 544.93-6.5Z" opacity="1" transform="matrix(1,0,0,1,0,0)" fill="#ffffff" class="undefined-text-1" data-fill-palette-color="quaternary" id="text-1"></path></svg></g></svg></g></svg></g></svg></g><g></g></svg></g></svg></g></svg></g><defs></defs></svg><rect width="395.52" height="247.2" fill="none" stroke="none" visibility="hidden"></rect></g></svg></g></svg>